<?xml version="1.0" encoding="utf-8"?>
<svg width="1576" viewBox="0 0 76 95" fill="none" xmlns="http://www.w3.org/2000/svg" xmlns:bx="https://boxy-svg.com">
  <path d="M 30.175 66.943 C 39.718 70.649 54.22 68.329 60.249 66.693 C 50.052 68.05 42.053 59.887 39.358 55.648 C 38.474 56.737 39.672 59.747 40.379 61.118 C 32.755 65.541 13.908 43.042 14.719 43.466 C 15.526 43.888 30.053 46.201 24.908 44.386 C 19.764 42.568 11.346 23.533 13.485 20.9 C 15.196 18.795 26.663 20.743 32.181 21.979 L 35.58 27.894 C 39.203 21.592 32.044 11.289 28.009 6.925 C 18.688 6.646 -0.37 6.919 -2.023 10.231 C -4.093 14.368 4.959 38.472 4.773 38.344 C 4.588 38.219 -1.426 39.244 -1.426 39.244 C -1.426 39.244 5.635 48.382 8.762 52.21 C 11.924 55.58 20.634 63.24 30.175 66.943 Z" style="stroke-width: 0px; paint-order: stroke markers; fill: url(&quot;#gradient-2&quot;); transform-box: fill-box; transform-origin: 50% 50%;" transform="matrix(0.956305, 0.292372, -0.292372, 0.956305, 0, 0)"/>
  <defs>
    <linearGradient gradientUnits="userSpaceOnUse" x1="223.724" y1="383.582" x2="223.724" y2="416.418" id="gradient-1" gradientTransform="matrix(0.009453, 0.94148, -0.646828, 0.005754, 482.332031, 186.988373)">
      <stop offset="0" style="stop-color: rgb(100% 65.49% 65.49%)"/>
      <stop offset="1" style="stop-color: rgb(64.692% 33.693% 34.627%)"/>
    </linearGradient>
    <linearGradient gradientUnits="userSpaceOnUse" x1="46.682" y1="20.544" x2="46.682" y2="82.63" id="gradient-0" gradientTransform="matrix(0.754269, -0.656566, 0.463997, 0.533044, -27.231537, 55.42944)">
      <stop offset="0" style="stop-color: rgb(100% 63.529% 63.529%)"/>
      <stop offset="1" style="stop-color: rgb(65.066% 32.217% 33.322%)"/>
    </linearGradient>
    <linearGradient gradientUnits="userSpaceOnUse" x1="29.322" y1="20.647" x2="29.322" y2="82.733" id="gradient-2" gradientTransform="matrix(0.886695, -0.462355, 0.503399, 0.965411, -7.434621, 0.466442)">
      <stop offset="0" style="stop-color: rgb(100% 63.922% 63.922%)"/>
      <stop offset="1" style="stop-color: rgb(64.992% 32.514% 33.584%)"/>
    </linearGradient>
    <linearGradient x1="0" x2="0" y1="0" y2="1" id="gradient-3" spreadMethod="reflect">
      <stop offset="0" style="stop-color: rgb(255, 162, 162);"/>
      <stop offset="1" style="stop-color: rgb(166, 82, 85);"/>
    </linearGradient>
    <style bx:fonts="Bruno Ace SC">@import url(https://fonts.googleapis.com/css2?family=Bruno+Ace+SC%3Aital%2Cwght%400%2C400&amp;display=swap);</style>
    <bx:export>
      <bx:file format="svg" href="#object-0"/>
    </bx:export>
  </defs>
  <text style="white-space: pre; fill: rgb(51, 51, 51); font-family: Arial, sans-serif; font-size: 28px;" x="29.972" y="40.143"> </text>
  <path style="stroke: rgb(255, 77, 77); paint-order: stroke markers; fill-rule: nonzero; fill: rgb(255, 157, 157);" transform="matrix(0.199085, -0.210797, 0.204873, 0.19349, -98.291344, 15.435987)" d="M 311.971 388.241 L 318.029 388.241 L 319.307 397.494 A 16.093 16.093 0 0 1 322.919 398.99 L 330.365 393.351 L 334.649 397.635 L 329.01 405.081 A 16.093 16.093 0 0 1 330.506 408.693 L 339.759 409.971 L 339.759 416.029 L 330.506 417.307 A 16.093 16.093 0 0 1 329.01 420.919 L 334.649 428.365 L 330.365 432.649 L 322.919 427.01 A 16.093 16.093 0 0 1 319.307 428.506 L 318.029 437.759 L 311.971 437.759 L 310.693 428.506 A 16.093 16.093 0 0 1 307.081 427.01 L 299.635 432.649 L 295.351 428.365 L 300.99 420.919 A 16.093 16.093 0 0 1 299.494 417.307 L 290.241 416.029 L 290.241 409.971 L 299.494 408.693 A 16.093 16.093 0 0 1 300.99 405.081 L 295.351 397.635 L 299.635 393.351 L 307.081 398.99 A 16.093 16.093 0 0 1 310.693 397.494 Z M 315 405.572 A 7.428 7.428 0 0 0 315 420.428 A 7.428 7.428 0 0 0 315 405.572" bx:shape="cog 315 413 7.428 16.093 24.759 0.38 8 1@bdbb932e"/>
  <path d="M 47.535 8.724 C 57.078 5.018 71.58 7.338 77.609 8.974 C 67.412 7.617 59.413 15.78 56.718 20.019 C 55.834 18.93 57.032 15.92 57.739 14.549 C 50.115 10.126 31.268 32.625 32.079 32.201 C 32.886 31.779 47.413 29.466 42.268 31.281 C 37.124 33.099 28.706 52.134 30.845 54.767 C 32.556 56.872 44.023 54.924 49.541 53.688 L 52.94 47.773 C 56.563 54.075 49.404 64.378 45.369 68.742 C 36.048 69.021 16.99 68.748 15.337 65.436 C 13.267 61.299 22.319 37.195 22.133 37.323 C 21.948 37.448 15.934 36.423 15.934 36.423 C 15.934 36.423 22.995 27.285 26.122 23.457 C 29.284 20.087 37.994 12.427 47.535 8.724 Z" style="stroke-width: 0px; paint-order: stroke markers; fill: url(&quot;#gradient-0&quot;); transform-origin: 46.319px 37.782px;" transform="matrix(-0.956305, 0.292372, -0.292372, -0.956305, -0.000002, -0.000007)"/>
  <path style="stroke: rgb(255, 77, 77); paint-order: stroke markers; fill: rgb(255, 158, 158);" transform="matrix(0.199085, -0.210797, 0.204873, 0.19349, -121.167534, 14.826201)" d="M 311.971 388.241 L 318.029 388.241 L 319.307 397.494 A 16.093 16.093 0 0 1 322.919 398.99 L 330.365 393.351 L 334.649 397.635 L 329.01 405.081 A 16.093 16.093 0 0 1 330.506 408.693 L 339.759 409.971 L 339.759 416.029 L 330.506 417.307 A 16.093 16.093 0 0 1 329.01 420.919 L 334.649 428.365 L 330.365 432.649 L 322.919 427.01 A 16.093 16.093 0 0 1 319.307 428.506 L 318.029 437.759 L 311.971 437.759 L 310.693 428.506 A 16.093 16.093 0 0 1 307.081 427.01 L 299.635 432.649 L 295.351 428.365 L 300.99 420.919 A 16.093 16.093 0 0 1 299.494 417.307 L 290.241 416.029 L 290.241 409.971 L 299.494 408.693 A 16.093 16.093 0 0 1 300.99 405.081 L 295.351 397.635 L 299.635 393.351 L 307.081 398.99 A 16.093 16.093 0 0 1 310.693 397.494 Z M 315 405.572 A 7.428 7.428 0 0 0 315 420.428 A 7.428 7.428 0 0 0 315 405.572" bx:shape="cog 315 413 7.428 16.093 24.759 0.38 8 1@bdbb932e"/>
  <path style="stroke: rgb(0, 0, 0); fill: url(&quot;#gradient-1&quot;); transform-box: fill-box; transform-origin: 50% 50%;" transform="matrix(-0.00007, 1.094808, -1.162806, -0.000075, -186.352613, -349.083299)" d="M 217.976 383.582 A 17.472 17.472 0 0 1 217.976 416.418 A 133.554 133.554 0 0 0 217.976 383.582 Z" bx:shape="crescent 212 400 17.472 140 0.7 1@156e864e"/>
  <text style="fill: url(&quot;#gradient-3&quot;); font-family: &quot;Bruno Ace SC&quot;; font-size: 18px; font-weight: 700; line-height: 26.8698px; paint-order: stroke markers; stroke-width: 0px; white-space: pre; text-decoration: underline solid rgba(255, 255, 255, 0.9);" x="-7.645" y="90.270" id="object-0" transform="matrix(0.942222, 0, 0, 1, 6.639506, 0)">|ChePanel|</text>
</svg>